<?xml version="1.0" encoding="UTF-8"?>
<svg width="16px" height="12px" viewBox="0 0 16 12" version="1.1" xmlns="http://www.w3.org/2000/svg" xmlns:xlink="http://www.w3.org/1999/xlink">
    <!-- Generator: Sketch 61.2 (89653) - https://sketch.com -->
    <title>Fill-1</title>
    <desc>Created with Sketch.</desc>
    <g id="Page-1" stroke="none" stroke-width="1" fill="none" fill-rule="evenodd">
        <g id="Vidéos---Desktop" transform="translate(-1088.000000, -474.000000)" fill="#B80021" fill-rule="nonzero">
            <g id="Group-6" transform="translate(961.000000, 465.000000)">
                <g id="Group-8" transform="translate(120.000000, 0.000000)">
                    <g id="Page-1" transform="translate(7.500000, 9.750000)">
                        <g id="Special-elements">
                            <g id="Group-8">
                                <g id="Group-3">
                                    <path d="M13.575,4.425 C13.5,4.425 13.5,4.5 13.5,4.5 C12.525,5.25 11.55,6 10.575,6.75 C10.05,7.2 9.525,7.65 8.925,8.025 C8.175,8.475 7.35,8.625 6.525,8.25 C6.075,8.025 5.7,7.8 5.325,7.5 C4.05,6.525 2.775,5.475 1.5,4.5 C1.5,4.5 1.425,4.425 1.425,4.425 L1.425,9.825 L13.575,9.825 L13.575,4.425 L13.575,4.425 Z M1.425,1.425 C1.425,1.8 1.425,2.175 1.425,2.55 C1.425,2.625 1.5,2.625 1.5,2.7 C1.725,2.925 2.025,3.075 2.25,3.3 C3.375,4.2 4.5,5.1 5.7,6 C6.075,6.3 6.45,6.6 6.9,6.825 C7.125,6.975 7.425,7.05 7.725,6.975 C7.95,6.9 8.25,6.825 8.4,6.675 C8.85,6.375 9.3,6 9.675,5.7 C10.875,4.725 12.075,3.75 13.275,2.85 C13.5,2.7 13.65,2.55 13.575,2.25 C13.575,1.95 13.575,1.725 13.575,1.425 L1.425,1.425 Z M7.5,11.25 C5.475,11.25 3.45,11.25 1.425,11.25 C0.75,11.25 0.15,10.8 0,10.125 C0,9.975 0,9.825 0,9.75 C0,6.975 0,4.275 0,1.5 C0,0.6 0.675,0 1.5,0 C5.475,0 9.525,0 13.5,0 C14.1,0 14.625,0.3 14.85,0.825 C14.925,1.05 15,1.275 15,1.425 C15,4.2 15,6.975 15,9.75 C15,10.575 14.4,11.175 13.5,11.175 C11.55,11.25 9.525,11.25 7.5,11.25 L7.5,11.25 Z" id="Fill-1"></path>
                                </g>
                            </g>
                        </g>
                    </g>
                </g>
            </g>
        </g>
    </g>
</svg>