<?xml version="1.0" encoding="UTF-8"?>
<svg width="15px" height="15px" viewBox="0 0 15 15" version="1.1" xmlns="http://www.w3.org/2000/svg" xmlns:xlink="http://www.w3.org/1999/xlink">
    <!-- Generator: Sketch 61.2 (89653) - https://sketch.com -->
    <title>Shape</title>
    <desc>Created with Sketch.</desc>
    <g id="Page-1" stroke="none" stroke-width="1" fill="none" fill-rule="evenodd">
        <g id="Vidéos---Desktop" transform="translate(-1049.000000, -471.000000)" fill="#B80021" fill-rule="nonzero">
            <g id="Group-6" transform="translate(961.000000, 465.000000)">
                <g id="Group-2" transform="translate(80.000000, 0.000000)">
                    <g id="Page-1" transform="translate(8.250000, 6.750000)">
                        <g id="Special-elements">
                            <g id="Group-2">
                                <g id="linkedin-in-brands">
                                    <path d="M3.15,14.175 L0.225,14.175 L0.225,4.725 L3.15,4.725 L3.15,14.175 Z M1.725,3.45 C0.75,3.45 0,2.625 0,1.725 C0,0.825 0.75,0 1.725,0 C2.7,0 3.45,0.75 3.45,1.725 C3.45,2.7 2.625,3.45 1.725,3.45 Z M14.175,14.175 L11.25,14.175 L11.25,9.6 C11.25,8.475 11.25,7.125 9.75,7.125 C8.25,7.125 8.025,8.325 8.025,9.525 L8.025,14.175 L5.025,14.175 L5.025,4.725 L7.875,4.725 L7.875,6 L7.95,6 C8.325,5.25 9.3,4.5 10.725,4.5 C13.725,4.5 14.25,6.45 14.25,9 L14.175,14.175 L14.175,14.175 Z" id="Shape"></path>
                                </g>
                            </g>
                        </g>
                    </g>
                </g>
            </g>
        </g>
    </g>
</svg>