<?xml version="1.0" encoding="UTF-8"?>
<svg width="16px" height="13px" viewBox="0 0 16 13" version="1.1" xmlns="http://www.w3.org/2000/svg" xmlns:xlink="http://www.w3.org/1999/xlink">
    <!-- Generator: Sketch 61.2 (89653) - https://sketch.com -->
    <title>Shape</title>
    <desc>Created with Sketch.</desc>
    <g id="Page-1" stroke="none" stroke-width="1" fill="none" fill-rule="evenodd">
        <g id="Vidéos---Desktop" transform="translate(-1009.000000, -474.000000)" fill="#B80021" fill-rule="nonzero">
            <g id="Group-6" transform="translate(961.000000, 465.000000)">
                <g id="Group-5" transform="translate(40.000000, 0.000000)">
                    <g id="Page-1" transform="translate(7.500000, 9.000000)">
                        <g id="Special-elements">
                            <g id="Group-5">
                                <g id="twitter-brands">
                                    <path d="M14.175,3.075 C14.175,3.225 14.175,3.375 14.175,3.45 C14.175,7.5 11.1,12.225 5.4,12.225 C3.675,12.225 2.025,11.7 0.675,10.875 C0.9,10.875 1.125,10.95 1.425,10.95 C2.85,10.95 4.2,10.5 5.25,9.6 C3.9,9.6 2.775,8.7 2.4,7.5 C2.625,7.5 2.775,7.575 3,7.575 C3.3,7.575 3.525,7.5 3.825,7.5 C2.4,7.2 1.35,6 1.35,4.5 L1.35,4.275 C1.8,4.5 2.25,4.65 2.775,4.65 C1.95,4.125 1.425,3.15 1.425,2.1 C1.425,1.5 1.575,0.975 1.875,0.525 C3.375,2.4 5.7,3.6 8.25,3.75 C8.1,3.525 8.025,3.3 8.025,3.075 C8.025,1.35 9.375,0 11.1,0 C12,0 12.75,0.375 13.35,0.975 C14.025,0.825 14.7,0.6 15.3,0.225 C15.075,0.975 14.55,1.575 13.95,1.95 C14.55,1.875 15.15,1.725 15.75,1.5 C15.3,2.025 14.775,2.625 14.175,3.075 Z" id="Shape"></path>
                                </g>
                            </g>
                        </g>
                    </g>
                </g>
            </g>
        </g>
    </g>
</svg>